<?xml version="1.0" encoding="UTF-8"?><svg id="Livello_1" xmlns="http://www.w3.org/2000/svg" viewBox="0 0 5442.52 1463.2"><defs><style>.cls-1{fill:#ff474e;}.cls-2{fill:#030351;}.cls-3{fill:#030351;}</style></defs><path class="cls-1" d="M4193.34,1273.36h-406.79c-19.33,0-29.02-23.37-15.35-37.05L4807.44,199.54c4.07-4.07,9.59-6.36,15.35-6.36h404.3c19.32,0,29.01,23.35,15.37,37.03l-1033.74,1036.77c-4.07,4.08-9.6,6.38-15.37,6.38Z"/><path class="cls-2" d="M100.35,888.73c0-227.77,169.09-384.28,368.91-384.28,72.66,0,142.53,20.97,194.24,62.89-2.8-57.29-4.2-115.99-4.2-177.47v-176.37c0-11.99,9.72-21.7,21.7-21.7h177.39c11.99,0,21.7,9.72,21.7,21.7v1037.76c0,11.99-9.72,21.7-21.7,21.7h-152.6c-11.84,0-21.49-9.49-21.7-21.33l-1.03-59.66c-50.3,53.09-131.35,81.05-213.8,81.05-199.83,0-368.91-156.52-368.91-384.29ZM498.6,1071.79c100.61,0,174.67-71.27,174.67-183.06s-74.06-183.05-174.67-183.05-177.47,71.27-177.47,183.05,75.46,183.06,177.47,183.06Z"/><path class="cls-2" d="M980.98,887.32c0-233.37,167.68-391.27,382.88-391.27,198.15,0,380.26,132.3,359.45,428.26-.8,11.41-10.23,20.3-21.66,20.3h-512.46c20.96,88.04,92.23,141.13,190.05,141.13,71.9,0,134.36-28.31,186.3-86.01,7.82-8.68,21.07-9.7,30.05-2.22l109.73,91.44c9.19,7.65,10.47,21.32,2.84,30.52-81.56,98.4-194.19,153.52-333.12,153.52-236.16,0-394.06-159.29-394.06-385.67ZM1517.58,792.3c-16.77-75.46-72.66-117.38-155.11-117.38s-146.72,46.11-170.48,117.38h325.59Z"/><path class="cls-2" d="M1825.55,888.73c0-227.77,169.09-384.28,368.91-384.28,82.44,0,163.49,27.95,213.8,81.05l.96-45.82c.25-11.81,9.89-21.25,21.7-21.25h152.68c11.99,0,21.7,9.72,21.7,21.7v711.13c0,11.99-9.72,21.7-21.7,21.7h-152.6c-11.84,0-21.49-9.49-21.7-21.33l-1.03-59.66c-50.3,53.09-131.35,81.05-213.8,81.05-199.83,0-368.91-156.52-368.91-384.29ZM2223.81,1071.79c100.61,0,174.67-71.27,174.67-183.06s-74.06-183.05-174.67-183.05-177.47,71.27-177.47,183.05,75.46,183.06,177.47,183.06Z"/><path class="cls-2" d="M2727.61,192.78h177.38c11.99,0,21.7,9.72,21.7,21.7v1036.77c0,11.99-9.72,21.7-21.7,21.7h-177.38c-11.99,0-21.7-9.72-21.7-21.7V214.48c0-11.99,9.72-21.7,21.7-21.7Z"/><path class="cls-2" d="M3049,508.88h177.38c11.99,0,21.7,9.72,21.7,21.7v720.67c0,11.99-9.72,21.7-21.7,21.7h-177.38c-11.99,0-21.7-9.72-21.7-21.7v-720.67c0-11.99,9.72-21.7,21.7-21.7Z"/><path class="cls-2" d="M3370.64,508.88h177.38c11.99,0,21.7,9.72,21.7,21.7v720.67c0,11.99-9.72,21.7-21.7,21.7h-177.38c-11.99,0-21.7-9.72-21.7-21.7v-720.67c0-11.99,9.72-21.7,21.7-21.7Z"/><rect class="cls-3" x="3027.06" y="191.79" width="221.27" height="221.27" rx="7.72" ry="7.72"/><rect class="cls-2" x="3348.7" y="191.79" width="221.27" height="221.27" rx="7.72" ry="7.72"/><polygon class="cls-2" points="5126.58 1267.56 5071.55 1197.48 5044.19 1261.16 5126.58 1267.56"/><polygon class="cls-2" points="5196.09 1205.57 5081.14 1194.04 5137.56 1265.89 5196.09 1205.57"/><polygon class="cls-2" points="5214.14 1278.2 5215.35 1310.1 5262.32 1278.28 5214.14 1278.2"/><polygon class="cls-2" points="4943.63 1152.78 5067.01 1182.33 5091.3 1101.28 4943.63 1152.78"/><polygon class="cls-2" points="5142.08 1359.28 5201.93 1319.15 5142.02 1281.93 5142.08 1359.28"/><polygon class="cls-2" points="5204.47 1278.18 5154.18 1278.1 5205.67 1310.09 5204.47 1278.18"/><polygon class="cls-2" points="4962.81 972.49 4815.34 1036.61 4923.7 1144.08 4962.81 972.49"/><polygon class="cls-2" points="5076.64 1183.87 5201.14 1196.35 5102.53 1097.48 5076.64 1183.87"/><polygon class="cls-2" points="5217.28 1361.16 5269.78 1339.12 5215.92 1325.29 5217.28 1361.16"/><path class="cls-2" d="M5329.18,1324.73l-29.13,12.18,42.03,10.78c.32-5.72-1.61-11.66-6.38-16.42l-6.53-6.55Z"/><polygon class="cls-2" points="5132.35 1285.15 5051.64 1368.34 5128.67 1368.34 5132.42 1365.78 5132.35 1285.15"/><polygon class="cls-2" points="5273.22 1268.63 5209.94 1205.18 5148.58 1268.42 5273.22 1268.63"/><polygon class="cls-2" points="5274.27 1281.86 5222.44 1316.98 5279.38 1331.6 5274.27 1281.86"/><polygon class="cls-2" points="4734.34 1181.82 4916.41 1150.47 4808.08 1043.03 4734.34 1181.82"/><path class="cls-2" d="M4798.54,1040.38l-206.36,12.61c1.05,2.36,2.52,4.58,4.46,6.52l125.2,125.2,76.7-144.33Z"/><path class="cls-2" d="M4795.81,1030.86l-101.01-100.19-98.15,98.15c-4.05,4.05-6.14,9.29-6.32,14.6l205.48-12.56Z"/><path class="cls-2" d="M4802.6,1023.97l10.61-204.98c-4.73.52-9.31,2.59-12.94,6.21l-98.63,98.63,100.96,100.14Z"/><path class="cls-2" d="M4921.07,1159.48l-191.49,32.96,169.54,169.54c.87.87,1.81,1.64,2.8,2.34l19.15-204.84Z"/><path class="cls-2" d="M5294.07,1345.36l11.66,22.99h14.64c8.77,0,15.54-4.82,19.06-11.35l-45.37-11.64Z"/><path class="cls-2" d="M5032.94,1274.82l-119.76,93.46c.43.03.86.06,1.29.06h125.54l-7.07-93.52Z"/><path class="cls-2" d="M4812.1,1027.48l153.88-66.91-135.04-135.39c-2.37-2.36-5.15-4.04-8.11-5.08l-10.73,207.38Z"/><polygon class="cls-2" points="5206.34 1327.72 5144.15 1368.34 5207.87 1368.34 5206.34 1327.72"/><polygon class="cls-2" points="5126.54 1277.25 5042.32 1270.71 5048.87 1357.31 5126.54 1277.25"/><polygon class="cls-2" points="5063.62 1191.46 4941.83 1162.3 5035.47 1256.96 5063.62 1191.46"/><polygon class="cls-2" points="5283.66 1279.1 5289.04 1331.04 5321.81 1317.34 5283.66 1279.1"/><polygon class="cls-2" points="5029.82 1264.99 4930.32 1164.41 4912.35 1356.66 5029.82 1264.99"/><polygon class="cls-2" points="5282.63 1344.21 5225.15 1368.34 5294.88 1368.34 5282.63 1344.21"/><polygon class="cls-2" points="4933.13 1146.21 5094.86 1089.79 4973.68 968.3 4933.13 1146.21"/><polygon class="cls-2" points="3739.84 189.61 3791.67 154.49 3734.73 139.87 3739.84 189.61"/><polygon class="cls-2" points="3818.02 265.9 3932.97 277.43 3876.55 205.58 3818.02 265.9"/><polygon class="cls-2" points="3969.92 210.31 3887.53 203.91 3942.56 273.98 3969.92 210.31"/><polygon class="cls-2" points="3796.83 110.31 3744.33 132.35 3798.19 146.18 3796.83 110.31"/><polygon class="cls-2" points="3807.77 143.75 3869.96 103.13 3806.24 103.13 3807.77 143.75"/><polygon class="cls-2" points="3887.57 194.22 3971.79 200.75 3965.24 114.16 3887.57 194.22"/><polygon class="cls-2" points="4070.48 318.68 3947.11 289.14 3922.81 370.19 4070.48 318.68"/><polygon class="cls-2" points="3809.64 193.28 3859.93 193.37 3808.44 161.38 3809.64 193.28"/><polygon class="cls-2" points="3881.76 186.32 3962.47 103.13 3885.45 103.13 3881.69 105.69 3881.76 186.32"/><path class="cls-2" d="M4215.57,431.09l206.36-12.61c-1.05-2.36-2.52-4.58-4.46-6.52l-125.2-125.2-76.7,144.33Z"/><polygon class="cls-2" points="3740.89 202.84 3804.17 266.29 3865.53 203.05 3740.89 202.84"/><polygon class="cls-2" points="3950.5 280.01 4072.28 309.17 3978.64 214.51 3950.5 280.01"/><polygon class="cls-2" points="3872.03 112.19 3812.18 152.32 3872.09 189.54 3872.03 112.19"/><polygon class="cls-2" points="4101.76 114.81 3984.3 206.48 4083.79 307.05 4101.76 114.81"/><polygon class="cls-2" points="3937.47 287.6 3812.97 275.12 3911.58 373.99 3937.47 287.6"/><polygon class="cls-2" points="3798.76 161.37 3751.79 193.19 3799.97 193.27 3798.76 161.37"/><path class="cls-2" d="M3684.93,146.74l29.13-12.18-42.03-10.78c-.32,5.72,1.61,11.66,6.38,16.42l6.53,6.55Z"/><path class="cls-2" d="M3720.04,126.11l-11.66-22.99h-14.64c-8.77,0-15.54,4.81-19.06,11.35l45.37,11.64Z"/><path class="cls-2" d="M3981.17,196.65l119.76-93.46c-.43-.03-.86-.06-1.29-.06h-125.54l7.07,93.52Z"/><path class="cls-2" d="M4218.3,440.61l101.01,100.19,98.15-98.15c4.05-4.05,6.14-9.3,6.32-14.6l-205.48,12.56Z"/><path class="cls-2" d="M4211.52,447.5l-10.61,204.98c4.73-.52,9.31-2.59,12.94-6.21l98.63-98.63-100.96-100.14Z"/><path class="cls-2" d="M4202.02,443.99l-153.88,66.91,135.04,135.39c2.37,2.36,5.15,4.04,8.11,5.08l10.73-207.38Z"/><polygon class="cls-2" points="3730.45 192.37 3725.07 140.43 3692.31 154.13 3730.45 192.37"/><polygon class="cls-2" points="4080.98 325.26 3919.25 381.68 4040.43 503.17 4080.98 325.26"/><polygon class="cls-2" points="3731.48 127.26 3788.96 103.13 3719.23 103.13 3731.48 127.26"/><path class="cls-2" d="M4093.04,311.99l191.49-32.96-169.54-169.54c-.87-.87-1.81-1.64-2.8-2.34l-19.15,204.84Z"/><polygon class="cls-2" points="4090.41 327.39 4051.3 498.97 4198.77 434.86 4090.41 327.39"/><polygon class="cls-2" points="4279.78 289.65 4097.7 320.99 4206.03 428.44 4279.78 289.65"/></svg>