<?xml version="1.0" encoding="UTF-8"?><svg id="Livello_1" xmlns="http://www.w3.org/2000/svg" viewBox="0 0 5442.52 1463.2"><defs><style>.cls-1{fill:#ff474e;}.cls-2{fill:#fff;}</style></defs><path class="cls-1" d="M4193.34,1273.19h-406.79c-19.33,0-29.02-23.37-15.35-37.05L4807.44,199.37c4.07-4.07,9.59-6.36,15.35-6.36h404.3c19.32,0,29.01,23.35,15.37,37.03l-1033.74,1036.77c-4.07,4.08-9.6,6.38-15.37,6.38Z"/><path class="cls-2" d="M100.35,888.55c0-227.77,169.09-384.28,368.91-384.28,72.66,0,142.53,20.97,194.24,62.89-2.8-57.29-4.2-115.99-4.2-177.47v-176.37c0-11.99,9.72-21.7,21.7-21.7h177.39c11.99,0,21.7,9.72,21.7,21.7v1037.76c0,11.99-9.72,21.7-21.7,21.7h-152.6c-11.84,0-21.49-9.49-21.7-21.33l-1.03-59.66c-50.3,53.09-131.35,81.05-213.8,81.05-199.83,0-368.91-156.52-368.91-384.29ZM498.6,1071.62c100.61,0,174.67-71.27,174.67-183.06s-74.06-183.05-174.67-183.05-177.47,71.27-177.47,183.05,75.46,183.06,177.47,183.06Z"/><path class="cls-2" d="M980.98,887.14c0-233.37,167.68-391.27,382.88-391.27,198.15,0,380.26,132.3,359.45,428.26-.8,11.41-10.23,20.3-21.66,20.3h-512.46c20.96,88.04,92.23,141.13,190.05,141.13,71.9,0,134.36-28.31,186.3-86.01,7.82-8.68,21.07-9.7,30.05-2.22l109.73,91.44c9.19,7.65,10.47,21.32,2.84,30.52-81.56,98.4-194.19,153.52-333.12,153.52-236.16,0-394.06-159.29-394.06-385.67ZM1517.58,792.12c-16.77-75.46-72.66-117.38-155.11-117.38s-146.72,46.11-170.48,117.38h325.59Z"/><path class="cls-2" d="M1825.55,888.55c0-227.77,169.09-384.28,368.91-384.28,82.44,0,163.49,27.95,213.8,81.05l.96-45.82c.25-11.81,9.89-21.25,21.7-21.25h152.68c11.99,0,21.7,9.72,21.7,21.7v711.13c0,11.99-9.72,21.7-21.7,21.7h-152.6c-11.84,0-21.49-9.49-21.7-21.33l-1.03-59.66c-50.3,53.09-131.35,81.05-213.8,81.05-199.83,0-368.91-156.52-368.91-384.29ZM2223.81,1071.62c100.61,0,174.67-71.27,174.67-183.06s-74.06-183.05-174.67-183.05-177.47,71.27-177.47,183.05,75.46,183.06,177.47,183.06Z"/><path class="cls-2" d="M2727.61,192.6h177.38c11.99,0,21.7,9.72,21.7,21.7v1036.77c0,11.99-9.72,21.7-21.7,21.7h-177.38c-11.99,0-21.7-9.72-21.7-21.7V214.31c0-11.99,9.72-21.7,21.7-21.7Z"/><path class="cls-2" d="M3049,508.71h177.38c11.99,0,21.7,9.72,21.7,21.7v720.67c0,11.99-9.72,21.7-21.7,21.7h-177.38c-11.99,0-21.7-9.72-21.7-21.7v-720.67c0-11.99,9.72-21.7,21.7-21.7Z"/><path class="cls-2" d="M3370.64,508.71h177.38c11.99,0,21.7,9.72,21.7,21.7v720.67c0,11.99-9.72,21.7-21.7,21.7h-177.38c-11.99,0-21.7-9.72-21.7-21.7v-720.67c0-11.99,9.72-21.7,21.7-21.7Z"/><rect class="cls-2" x="3027.06" y="191.62" width="221.27" height="221.27" rx="7.72" ry="7.72"/><rect class="cls-2" x="3348.7" y="191.62" width="221.27" height="221.27" rx="7.72" ry="7.72"/><path class="cls-2" d="M5339.6,1327.22l-5.01-5.03-7.3-7.32h0s-44.52-44.64-44.52-44.64l-.17-1.62-1.48-.04-68.7-68.88.22-.53-1.38-.63-376.44-377.43c-10.61-10.58-27.86-10.57-38.45.02l-203.62,203.62c-10.61,10.61-10.61,27.86,0,38.47l302.48,302.48c5.14,5.14,11.97,7.97,19.24,7.97h405.91c11.22,0,20.85-6.44,25.14-16.81,4.29-10.37,2.02-21.73-5.91-29.64ZM5300.05,1336.73l23.65-9.89,8.13,8.15c3.43,3.43,4.73,7.42,4.77,11.11l-36.55-9.38ZM5316.32,1319.45l-27.28,11.41-4.48-43.25,31.76,31.84ZM5056.97,1362.67l75.38-77.7.06,77.7h-75.44ZM4815.34,1036.43l147.47-64.12-39.11,171.59-108.36-107.47ZM4916.41,1150.3l-182.07,31.34,73.75-138.79,108.33,107.44ZM5222.44,1316.8l51.83-35.12,5.11,49.75-56.94-14.62ZM5269.78,1338.94l-52.5,22.04-1.35-35.87,53.85,13.83ZM5215.35,1309.92l-1.2-31.9,48.17.08-46.97,31.82ZM5148.58,1268.24l57.53-59.3,59.33,59.49-116.86-.19ZM5063.62,1191.28l-28.15,65.5-93.64-94.66,121.79,29.16ZM4943.63,1152.61l147.67-51.51-24.29,81.05-123.38-29.54ZM5044.19,1260.98l27.37-63.67,55.03,70.07-82.39-6.4ZM5126.54,1277.07l-77.67,80.05-6.55-86.59,84.22,6.54ZM5081.14,1193.86l114.95,11.53-58.53,60.33-56.42-71.85ZM5154.18,1277.92l50.28.08,1.2,31.9-51.49-31.99ZM5201.93,1318.97l-59.85,40.13-.06-77.35,59.91,37.22ZM5076.64,1183.69l24.09-80.4,91.77,92.02-115.87-11.62ZM4933.13,1146.03l39.11-171.57,116.86,117.17-155.97,54.4ZM4930.32,1164.24l99.49,100.58-117.46,91.66,17.97-192.24ZM5032.94,1274.64l6.66,88.02h-119.45l112.79-88.02ZM5206.34,1327.54l1.33,35.12h-55.09l53.76-35.12ZM5282.63,1344.03l9.46,18.63h-53.84l44.38-18.63ZM4960.56,962.75l-148.46,64.55,10.43-201.57c1.63.77,3.17,1.81,4.52,3.16l133.51,133.86ZM4804.16,828.91c2.47-2.47,5.55-3.96,8.76-4.5l-10.32,199.38-97.06-96.27,98.62-98.62ZM4698.7,934.36l97.11,96.32-199.96,12.22c.26-3.92,1.89-7.57,4.69-10.37l98.16-98.16ZM4598.19,1052.44l200.36-12.24-74,139.26-124.01-124.01c-.91-.91-1.69-1.93-2.35-3ZM4736.22,1191.13l184.85-31.82-18.52,198.15-166.33-166.33ZM5320.38,1362.67h-17.43l-8.87-17.49,39.83,10.22c-2.54,3.87-7.04,7.27-13.52,7.27Z"/><path class="cls-2" d="M4417.96,403.48l-302.48-302.48c-5.14-5.14-11.97-7.97-19.24-7.97h-405.91c-11.22,0-20.85,6.44-25.14,16.81-4.29,10.37-2.02,21.73,5.91,29.64l504.78,506.11c5.3,5.29,12.26,7.93,19.21,7.93s13.94-2.65,19.24-7.95l203.62-203.62c5.14-5.14,7.97-11.97,7.97-19.23s-2.83-14.1-7.97-19.24ZM4412.53,414.26l-200.36,12.24,74-139.26,124.01,124.01c.91.91,1.69,1.93,2.35,3ZM3745.27,198.26l116.86.19-57.53,59.3-59.33-59.49ZM3678.89,131.71c-3.43-3.43-4.73-7.42-4.77-11.11l36.55,9.38-23.65,9.89-8.13-8.15ZM3721.67,135.84l4.48,43.25-31.76-31.84,27.28-11.41ZM3953.74,104.03l-75.38,77.7-.06-77.7h75.44ZM3808.78,147.73l59.85-40.14.06,77.36-59.91-37.22ZM3856.53,188.78l-50.28-.08-1.21-31.9,51.49,31.99ZM3884.14,199.32l82.39,6.4-27.37,63.67-55.03-70.07ZM3929.57,272.84l-114.95-11.53,58.53-60.32,56.42,71.85ZM3884.17,189.63l77.67-80.06,6.55,86.59-84.22-6.54ZM3943.71,284.55l123.38,29.54-147.67,51.51,24.29-81.05ZM3947.1,275.42l28.15-65.5,93.64,94.66-121.79-29.16ZM3980.9,201.88l117.46-91.66-17.97,192.24-99.49-100.58ZM3977.78,192.06l-6.66-88.02h119.45l-112.8,88.02ZM3804.38,139.15l-1.33-35.12h55.09l-53.76,35.12ZM3788.27,149.9l-51.83,35.12-5.11-49.75,56.94,14.62ZM3740.94,127.76l52.5-22.04,1.35,35.87-53.85-13.83ZM3795.36,156.77l1.21,31.9-48.17-.08,46.97-31.82ZM3728.08,122.67l-9.46-18.63h53.84l-44.38,18.63ZM3934.07,283.01l-24.09,80.4-91.77-92.02,115.87,11.62ZM4077.58,320.67l-39.11,171.57-116.86-117.17,155.97-54.4ZM4087.02,322.79l108.36,107.47-147.47,64.12,39.11-171.59ZM4094.3,316.4l182.07-31.34-73.75,138.79-108.33-107.44ZM4274.49,275.57l-184.85,31.82,18.52-198.15,166.33,166.33ZM3690.33,104.03h17.43l8.87,17.49-39.83-10.22c2.54-3.87,7.04-7.27,13.52-7.27ZM4050.15,503.95l148.47-64.55-10.43,201.57c-1.63-.77-3.17-1.81-4.52-3.16l-133.51-133.87ZM4206.56,637.79c-2.47,2.47-5.55,3.96-8.76,4.5l10.32-199.38,97.06,96.27-98.62,98.62ZM4312.01,532.34l-97.11-96.32,199.96-12.22c-.26,3.92-1.89,7.57-4.69,10.37l-98.16,98.16Z"/></svg>