<?xml version="1.0" encoding="UTF-8"?>
<svg id="Livello_1" xmlns="http://www.w3.org/2000/svg" viewBox="0 0 48 48">
  <defs>
    <style>
      .cls-1 {
        fill: #ff474e;
      }

      .cls-2 {
        fill: #03034d;
      }

      .cls-3 {
        fill: #fff;
      }
    </style>
  </defs>
  <circle class="cls-2" cx="24" cy="24.07" r="23.56" />
  <path class="cls-1"
    d="M34.56,27.95h-2.92c-.14,0-.21-.17-.11-.27l7.44-7.45s.07-.05.11-.05h2.9c.14,0,.21.17.11.27l-7.43,7.45s-.07.05-.11.05Z" />
  <path class="cls-3"
    d="M5.15,25.18c0-1.64,1.21-2.76,2.65-2.76.52,0,1.02.15,1.4.45-.02-.41-.03-.83-.03-1.27v-1.27c0-.09.07-.16.16-.16h1.27c.09,0,.16.07.16.16v7.46c0,.09-.07.16-.16.16h-1.1c-.09,0-.15-.07-.16-.15v-.43c-.37.38-.95.58-1.54.58-1.44,0-2.65-1.12-2.65-2.76ZM8.01,26.5c.72,0,1.25-.51,1.25-1.32s-.53-1.32-1.25-1.32-1.27.51-1.27,1.32.54,1.32,1.27,1.32Z" />
  <path class="cls-3"
    d="M11.48,25.17c0-1.68,1.2-2.81,2.75-2.81,1.42,0,2.73.95,2.58,3.08,0,.08-.07.15-.16.15h-3.68c.15.63.66,1.01,1.37,1.01.52,0,.97-.2,1.34-.62.06-.06.15-.07.22-.02l.79.66c.07.05.08.15.02.22-.59.71-1.4,1.1-2.39,1.1-1.7,0-2.83-1.14-2.83-2.77ZM15.33,24.49c-.12-.54-.52-.84-1.11-.84s-1.05.33-1.22.84h2.34Z" />
  <path class="cls-3"
    d="M17.55,25.18c0-1.64,1.21-2.76,2.65-2.76.59,0,1.17.2,1.54.58v-.33c0-.08.08-.15.16-.15h1.1c.09,0,.16.07.16.16v5.11c0,.09-.07.16-.16.16h-1.1c-.09,0-.15-.07-.16-.15v-.43c-.37.38-.95.58-1.54.58-1.44,0-2.65-1.12-2.65-2.76ZM20.41,26.5c.72,0,1.25-.51,1.25-1.32s-.53-1.32-1.25-1.32-1.27.51-1.27,1.32.54,1.32,1.27,1.32Z" />
  <path class="cls-3"
    d="M24.03,20.18h1.27c.09,0,.16.07.16.16v7.45c0,.09-.07.16-.16.16h-1.27c-.09,0-.16-.07-.16-.16v-7.45c0-.09.07-.16.16-.16Z" />
  <path class="cls-3"
    d="M26.33,22.45h1.27c.09,0,.16.07.16.16v5.18c0,.09-.07.16-.16.16h-1.27c-.09,0-.16-.07-.16-.16v-5.18c0-.09.07-.16.16-.16Z" />
  <path class="cls-3"
    d="M28.65,22.45h1.27c.09,0,.16.07.16.16v5.18c0,.09-.07.16-.16.16h-1.27c-.09,0-.16-.07-.16-.16v-5.18c0-.09.07-.16.16-.16Z" />
  <rect class="cls-3" x="26.18" y="20.18" width="1.59" height="1.59" rx=".78" ry=".78" />
  <rect class="cls-3" x="28.49" y="20.18" width="1.59" height="1.59" rx=".78" ry=".78" />
  <path class="cls-3"
    d="M42.79,28.33l-.04-.04-.05-.05h0s-.32-.32-.32-.32h0s-.01-.01-.01-.01l-.49-.49h0s0,0,0,0l-2.7-2.71c-.08-.08-.2-.08-.28,0l-1.46,1.46c-.08.08-.08.2,0,.28l2.17,2.17s.09.06.14.06h2.92c.08,0,.15-.05.18-.12.03-.07.01-.16-.04-.21ZM42.51,28.4l.17-.07.06.06s.03.05.03.08l-.26-.07ZM42.62,28.28l-.2.08-.03-.31.23.23ZM40.76,28.59l.54-.56v.56s-.54,0-.54,0ZM39.02,26.24l1.06-.46-.28,1.23-.78-.77ZM39.75,27.06l-1.31.23.53-1,.78.77ZM41.95,28.26l.37-.25.04.36-.41-.11ZM42.29,28.42l-.38.16v-.26s.38.1.38.1ZM41.9,28.21v-.23s.34,0,.34,0l-.34.23ZM41.42,27.91l.41-.43.43.43h-.84ZM40.81,27.36l-.2.47-.67-.68.87.21ZM39.95,27.08l1.06-.37-.17.58-.89-.21ZM40.67,27.86l.2-.46.4.5-.59-.05ZM41.26,27.97l-.56.58-.05-.62.61.05ZM40.93,27.38l.83.08-.42.43-.41-.52ZM41.46,27.98h.36s0,.23,0,.23l-.37-.23ZM41.8,28.27l-.43.29v-.56s.43.27.43.27ZM40.9,27.3l.17-.58.66.66-.83-.08ZM39.87,27.03l.28-1.23.84.84-1.12.39ZM39.85,27.16l.71.72-.84.66.13-1.38ZM40.59,27.96l.05.63h-.86l.81-.63ZM41.83,28.34v.25s-.39,0-.39,0l.39-.25ZM42.38,28.45l.07.13h-.39l.32-.13ZM40.07,25.72l-1.07.46.07-1.45s.02.01.03.02l.96.96ZM38.94,24.75s.04-.03.06-.03l-.07,1.43-.7-.69.71-.71ZM38.19,25.51l.7.69-1.44.09s.01-.05.03-.07l.71-.71ZM37.46,26.36l1.44-.09-.53,1-.89-.89s-.01-.01-.02-.02ZM38.46,27.36l1.33-.23-.13,1.42-1.19-1.19ZM42.65,28.59h-.13l-.06-.13.29.07s-.05.05-.1.05Z" />
</svg>