<?xml version="1.0" encoding="UTF-8"?><svg xmlns="http://www.w3.org/2000/svg" viewBox="0 0 384 167"><defs><style>.cls-1{fill:#b2b2b2;}.cls-1,.cls-2,.cls-3,.cls-4,.cls-5{stroke-width:0px;}.cls-2{fill:#164194;}.cls-3{fill:#878787;}.cls-4{fill:#c6c6c6;}.cls-5{fill:#9d9d9c;}</style></defs><g id="Layer_1"><path class="cls-3" d="M101.7627,115.5869c-.0303,0-.0615-.0029-.0923-.0088l-14.8633-2.7812c-.0142.0078-.6929-.0479-.9995-.6055-.2622-.4756-.2588-.9561-.2578-1.0098v-5.6719c0-.2764.2236-.5.5-.5s.5.2236.5.5v5.6836c0,.0098.0005.2734.1338.5156.0264.0479.1768.0938.2422.0977l14.9282,2.7891c.2715.0508.4507.3115.3999.583-.0454.2402-.2554.4082-.4912.4082Z"/><path class="cls-3" d="M97.3286,105.3818c-.0264,0-.0532-.002-.0806-.0068l-10.4292-1.6885c.0156-.0215-.7046-.0508-1.0112-.6064-.2622-.4756-.2588-.957-.2578-1.0107v-5.6719c0-.2764.2236-.5.5-.5s.5.2236.5.5v5.6836c0,.0098.0005.2744.1338.5166.0259.0469.1763.0928.2422.0967l10.4824,1.6943c.2725.0439.4575.3008.4136.5732-.04.2451-.252.4199-.4932.4199Z"/><path class="cls-3" d="M92.9375,95.1025c-.0142,0-.0288-.001-.0435-.002l-6.0381-.5205c-.0605-.0029-.7417-.0557-1.0483-.6123-.2622-.4756-.2588-.9561-.2578-1.0098v-5.6729c0-.2764.2236-.5.5-.5s.5.2236.5.5v5.6846c0,.0098.0005.2734.1338.5156.0264.0479.1768.0938.2422.0977l6.0542.5215c.2749.0234.479.2656.4551.541-.0225.2607-.2407.457-.4976.457Z"/><path class="cls-3" d="M91.3413,85.0928h-5.2915c-.2764,0-.5-.2236-.5-.5s.2236-.5.5-.5h5.2915c.2764,0,.5.2236.5.5s-.2236.5-.5.5Z"/><path class="cls-3" d="M86.0498,64.1758c-.2764,0-.5-.2236-.5-.5v-5.6841c-.001-.042-.0044-.5234.2578-.9985.3066-.5566.9878-.6089,1.0645-.6133l14.7983-2.7739c.2695-.0474.5322.1284.5835.3999.0508.2715-.1284.5322-.3999.5835l-14.8633,2.7817c-.1504.0146-.2832.061-.3071.1045-.1313.2383-.1338.5024-.1338.5049v5.6953c0,.2764-.2236.5-.5.5Z"/><path class="cls-3" d="M86.0498,73.2871c-.2764,0-.5-.2236-.5-.5v-5.6836c-.001-.042-.0044-.5225.2578-.998.3066-.5576.9878-.6094,1.0645-.6133l7.8638-1.2754c.2739-.0518.5293.1406.5737.4131.0439.2725-.1411.5293-.4136.5732l-7.917,1.2812c-.1387.0127-.271.0596-.2954.1035-.1333.2422-.1338.5059-.1338.5088v5.6904c0,.2764-.2236.5-.5.5Z"/><path class="cls-3" d="M86.0498,82.3994c-.2764,0-.5-.2236-.5-.5v-5.6836c-.001-.042-.0044-.5225.2578-.998.3066-.5566.9878-.6094,1.0645-.6133l4.9619-.4287c.2734-.0215.5171.1797.541.4551s-.1797.5176-.4551.541l-4.978.4297c-.1016.0078-.2339.0547-.2583.0986-.1333.2422-.1338.5059-.1338.5088v5.6904c0,.2764-.2236.5-.5.5Z"/><path class="cls-1" d="M82.2314,109.0859c-.0303,0-.0615-.0029-.0923-.0088l-11.6948-2.1885c-.0044-.001-.5894-.0371-.8604-.5293-.2192-.3984-.2173-.8027-.2163-.8477v-4.4609c0-.2764.2236-.5.5-.5s.5.2236.5.5v4.4717c0,.0068.002.1904.0923.3545.0107.0029.0869.0205.1025.0215l11.7603,2.1963c.2715.0508.4507.3115.3999.583-.0454.2402-.2554.4082-.4912.4082Z"/><path class="cls-1" d="M82.2314,101.6211c-.0264,0-.0532-.002-.0806-.0068l-11.6948-1.8926c-.0024.0107-.6006-.0391-.8721-.5322-.2192-.3984-.2173-.8018-.2163-.8467v-4.4619c0-.2764.2236-.5.5-.5s.5.2236.5.5v4.4727c0,.0068.002.1895.0923.3535h.0005c.0088,0,.0693.0186.1108.0225l11.7397,1.8984c.2725.0439.4575.3008.4136.5732-.04.2451-.252.4199-.4932.4199Z"/><path class="cls-1" d="M82.2314,93.5684c-.0142,0-.0288-.001-.0435-.002l-11.6948-1.0098c-.0498-.002-.6396-.0469-.9092-.5361-.2192-.3984-.2173-.8027-.2163-.8477v-4.4619c0-.2764.2236-.5.5-.5s.5.2236.5.5v4.4727c0,.0068.002.1904.0923.3545.0107.0029.0869.0205.1025.0215l11.7114,1.0107c.2754.0234.479.2656.4551.541-.0225.2607-.2407.457-.4976.457Z"/><path class="cls-1" d="M82.2886,85.0928h-12.4209c-.2764,0-.5-.2236-.5-.5s.2236-.5.5-.5h12.4209c.2764,0,.5.2236.5.5s-.2236.5-.5.5Z"/><path class="cls-1" d="M69.8677,68.6348c-.2764,0-.5-.2236-.5-.5v-4.4727c-.001-.0342-.0029-.4385.2163-.8369.2695-.4873.8584-.5332.9243-.5371l11.6309-2.1812c.2715-.0459.5322.1284.5835.3999.0508.2715-.1284.5322-.3999.583l-11.6948,2.1885c-.0996.0117-.1626.0312-.1807.0469-.0776.1465-.0796.3301-.0796.332v4.4775c0,.2764-.2236.5-.5.5Z"/><path class="cls-1" d="M69.8677,75.8037c-.2764,0-.5-.2236-.5-.5v-4.4717c-.001-.0342-.0029-.4385.2163-.8369.2695-.4893.8594-.5342.9258-.5371l11.6411-1.8877c.2778-.0508.5288.1406.5737.4131.0439.2725-.1411.5293-.4136.5732l-11.6948,1.8936c-.0884.0098-.1504.0283-.1689.0439-.0776.1475-.0796.3311-.0796.333v4.4766c0,.2764-.2236.5-.5.5Z"/><path class="cls-1" d="M69.8677,82.9736c-.2764,0-.5-.2236-.5-.5v-4.4727c-.001-.0342-.0029-.4375.2163-.8359.269-.4883.8584-.5342.9243-.5381l11.6797-1.0078c.2759-.0254.5176.1797.541.4551.0239.2754-.1802.5176-.4551.541l-11.6948,1.0088c-.0508.0049-.1128.0244-.1313.04-.0781.1475-.0801.3301-.0801.332v4.4775c0,.2764-.2236.5-.5.5Z"/><path class="cls-4" d="M66.0542,101.5293c-.0303,0-.0615-.0029-.0923-.0088l-8.0117-1.499c-.0415-.0029-.4766-.041-.6978-.4414-.1665-.3027-.1689-.6025-.168-.6602v-3.0527c0-.2764.2236-.5.5-.5s.5.2236.5.5v3.0635c.0005.0264.0093.1045.0439.168l8.0171,1.4395c.2715.0508.4507.3115.3999.583-.0454.2402-.2554.4082-.4912.4082Z"/><path class="cls-4" d="M66.0542,96.416c-.0264,0-.0532-.002-.0806-.0068l-8.0117-1.2969h-.001c-.0435,0-.4897-.0469-.7085-.4424-.1665-.3037-.1689-.6035-.168-.6611v-3.0527c0-.2764.2236-.5.5-.5s.5.2236.5.5v3.0635c.0005.0264.0093.1045.0439.168l8.0054,1.2354c.2725.0439.4575.3008.4136.5732-.04.2451-.252.4199-.4932.4199Z"/><path class="cls-4" d="M66.0542,90.8984c-.0142,0-.0288-.001-.0435-.002l-8.0117-.6914c-.0728-.0039-.5259-.0479-.7466-.4482-.1665-.3027-.1689-.6025-.168-.6602v-3.0527c0-.2764.2236-.5.5-.5s.5.2236.5.5v3.0635c.0005.0264.0093.1045.0439.168l7.9683.625c.2749.0234.479.2656.4551.541-.0225.2607-.2407.457-.4976.457Z"/><path class="cls-4" d="M66.0933,85.0928h-8.5088c-.2764,0-.5-.2236-.5-.5s.2236-.5.5-.5h8.5088c.2764,0,.5.2236.5.5s-.2236.5-.5.5Z"/><path class="cls-4" d="M57.5845,73.8174c-.2764,0-.5-.2236-.5-.5v-3.0635c-.001-.0469.0015-.3467.167-.6484.2217-.4014.6748-.4453.7637-.4502l7.9468-1.4912c.272-.0488.5322.1289.5835.3994.0508.2715-.1284.5322-.3999.583l-8.0117,1.499c-.04.0039-.0488.082-.0493.1064v3.0654c0,.2764-.2236.5-.5.5Z"/><path class="cls-4" d="M57.5845,78.7295c-.2764,0-.5-.2236-.5-.5v-3.0635c-.001-.0469.0015-.3467.167-.6484.2217-.4014.6748-.4453.7637-.4502l7.9585-1.291c.2764-.0488.5293.1416.5737.4131.0439.2725-.1411.5293-.4136.5732l-8.0117,1.2969c-.0283.002-.0371.0801-.0376.1045v3.0654c0,.2764-.2236.5-.5.5Z"/><path class="cls-4" d="M57.5845,83.6406c-.2764,0-.5-.2236-.5-.5v-3.0635c-.001-.0469.0015-.3467.167-.6484.2217-.4014.6748-.4453.7637-.4502l7.9956-.6904c.2773-.0225.5171.1797.541.4551s-.1802.5176-.4551.541l-8.0107.6914c.0073.002-.001.0762-.0015.0996v3.0654c0,.2764-.2236.5-.5.5Z"/><path class="cls-3" d="M167.4863,115.5869c-.2358,0-.4458-.168-.4912-.4082-.0508-.2715.1284-.5322.3999-.583l14.8638-2.7812c.1504-.0146.2832-.0615.3071-.1055.1328-.2422.1338-.5068.1338-.5098v-5.6895c0-.2764.2236-.5.5-.5s.5.2236.5.5v5.6836c.001.042.0034.5225-.2578.998-.3076.5576-.9878.6094-1.0645.6133l-14.7988,2.7734c-.0308.0059-.062.0088-.0923.0088Z"/><path class="cls-3" d="M171.9209,105.3818c-.2412,0-.4531-.1748-.4932-.4199-.0439-.2725.1411-.5293.4136-.5732l10.4292-1.6885c.1392-.0127.2715-.0596.2959-.1035.1323-.2412.1333-.5068.1333-.5098v-5.6895c0-.2764.2236-.5.5-.5s.5.2236.5.5v5.6836c.001.043.0034.5234-.2578.999-.3076.5566-.9878.6084-1.0645.6123l-10.376,1.6826c-.0273.0049-.0542.0068-.0806.0068Z"/><path class="cls-3" d="M176.312,95.1025c-.2568,0-.4751-.1963-.4976-.457-.0239-.2754.1802-.5176.4551-.541l6.0381-.5205c.1016-.0078.2344-.0547.2583-.0986.1328-.2422.1338-.5068.1338-.5098v-5.6904c0-.2764.2236-.5.5-.5s.5.2236.5.5v5.6846c.001.042.0034.5225-.2578.998-.3076.5576-.9878.6094-1.0645.6133l-6.022.5195c-.0146.001-.0293.002-.0435.002Z"/><path class="cls-3" d="M183.1997,85.0928h-5.2915c-.2764,0-.5-.2236-.5-.5s.2236-.5.5-.5h5.2915c.2764,0,.5.2236.5.5s-.2236.5-.5.5Z"/><path class="cls-3" d="M183.1997,64.1758c-.2764,0-.5-.2236-.5-.5v-5.6841c0-.0088-.001-.2744-.1338-.5166-.0259-.0464-.1763-.0928-.2422-.0962l-14.9287-2.7896c-.2715-.0513-.4507-.312-.3999-.5835.0513-.2715.3149-.4468.5835-.3999l14.8638,2.7817c.0254.0049.6919.0488.999.605.2617.4756.2593.9565.2583,1.0098v5.6733c0,.2764-.2236.5-.5.5Z"/><path class="cls-3" d="M183.1997,73.2871c-.2764,0-.5-.2236-.5-.5v-5.6836c0-.0088-.001-.2734-.1338-.5156-.0239-.0439-.1567-.0908-.248-.0977l-7.9644-1.2871c-.2725-.0439-.4575-.3008-.4136-.5732.0444-.2725.293-.4648.5737-.4131l7.917,1.2812c-.0127-.0166.7041.0508,1.0112.6074.2612.4756.2588.9561.2578,1.0088v5.6729c0,.2764-.2236.5-.5.5Z"/><path class="cls-3" d="M183.1997,82.3994c-.2764,0-.5-.2236-.5-.5v-5.6836c0-.0088-.001-.2734-.1338-.5156-.0239-.0439-.1567-.0908-.248-.0977l-4.9883-.4307c-.2754-.0234-.479-.2656-.4551-.541.0234-.2754.2598-.4766.541-.4551l4.978.4297c.0605.0029.7407.0547,1.0483.6123.2612.4756.2588.9561.2578,1.0088v5.6729c0,.2764-.2236.5-.5.5Z"/><path class="cls-1" d="M187.0181,109.0859c-.2358,0-.4458-.168-.4912-.4082-.0508-.2715.1284-.5322.3999-.583l11.6948-2.1885c.1001-.0117.1621-.0303.1807-.0459.0776-.1475.0796-.3311.0796-.333v-4.4766c0-.2764.2236-.5.5-.5s.5.2236.5.5v4.4717c.001.0342.0029.4385-.2163.8369-.2695.4893-.8594.5342-.9258.5371l-11.6294,2.1807c-.0308.0059-.062.0088-.0923.0088Z"/><path class="cls-1" d="M187.0181,101.6211c-.2412,0-.4531-.1748-.4932-.4199-.0439-.2725.1411-.5293.4136-.5732l11.6948-1.8926c.0879-.0098.1499-.0293.1685-.0449.0781-.1475.0801-.3301.0801-.332v-4.4775c0-.2764.2236-.5.5-.5s.5.2236.5.5v4.4727c.001.0342.0029.4375-.2163.8359-.269.4883-.8584.5342-.9248.5381l-11.6421,1.8867c-.0273.0049-.0542.0068-.0806.0068Z"/><path class="cls-1" d="M187.0181,93.5684c-.2568,0-.4751-.1963-.4976-.457-.0239-.2754.1797-.5176.4551-.541l11.6948-1.0098c.0513-.0049.1133-.0234.1318-.0391.0776-.1475.0796-.3311.0796-.333v-4.4775c0-.2764.2236-.5.5-.5s.5.2236.5.5v4.4727c.001.0342.0029.4385-.2163.8369-.2695.4893-.8594.5342-.9258.5371l-11.6782,1.0088c-.0146.001-.0293.002-.0435.002Z"/><path class="cls-1" d="M199.3818,85.0928h-12.4209c-.2764,0-.5-.2236-.5-.5s.2236-.5.5-.5h12.4209c.2764,0,.5.2236.5.5s-.2236.5-.5.5Z"/><path class="cls-1" d="M199.3818,68.6348c-.2764,0-.5-.2236-.5-.5v-4.4727c0-.0068-.002-.1904-.0923-.3545-.0078.0049-.0679-.0186-.1113-.0215l-11.7515-2.1963c-.2715-.0508-.4507-.3115-.3999-.583.0518-.2715.3169-.4453.5835-.3999l11.6948,2.189c.0044-.001.5913.043.8599.5283.2197.3994.2178.8037.2168.8486v4.4619c0,.2764-.2236.5-.5.5Z"/><path class="cls-1" d="M199.3818,75.8037c-.2764,0-.5-.2236-.5-.5v-4.4717c0-.0068-.002-.1904-.0923-.3545-.0107-.0029-.0869-.0205-.1025-.0215l-11.7485-1.8994c-.2725-.0439-.4575-.3008-.4136-.5732s.2939-.4639.5737-.4131l11.6948,1.8936c.0068-.001.6016.04.8721.5312.2192.3984.2173.8027.2163.8477v4.4609c0,.2764-.2236.5-.5.5Z"/><path class="cls-1" d="M199.3818,82.9736c-.2764,0-.5-.2236-.5-.5v-4.4727c0-.0068-.002-.1895-.0923-.3535h-.0005c-.0088,0-.0693-.0186-.1108-.0225l-11.7026-1.0098c-.2749-.0234-.479-.2656-.4551-.541s.2573-.4814.541-.4551l11.6948,1.0088c.0508.0029.6401.0488.9092.5371.2192.3984.2173.8018.2163.8467v4.4619c0,.2764-.2236.5-.5.5Z"/><path class="cls-4" d="M203.1953,101.5293c-.2358,0-.4458-.168-.4912-.4082-.0508-.2715.1284-.5322.3999-.583l8.0112-1.499c.0405-.0039.0493-.082.0498-.1064v-3.0654c0-.2764.2236-.5.5-.5s.5.2236.5.5v3.0635c.001.0469-.0015.3467-.167.6484-.2217.4014-.6753.4453-.7642.4502l-7.9463,1.4912c-.0308.0059-.062.0088-.0923.0088Z"/><path class="cls-4" d="M203.1953,96.416c-.2412,0-.4531-.1748-.4932-.4199-.0439-.2725.1411-.5293.4136-.5732l8.0112-1.2969c.0288-.002.0376-.0801.0381-.1045v-3.0654c0-.2764.2236-.5.5-.5s.5.2236.5.5v3.0635c.001.0469-.0015.3467-.167.6484-.2217.4014-.6753.4453-.7642.4502l-7.958,1.291c-.0273.0049-.0542.0068-.0806.0068Z"/><path class="cls-4" d="M203.1953,90.8984c-.2568,0-.4751-.1963-.4976-.457-.0239-.2754.1802-.5176.4551-.541l8.0103-.6914c-.0068-.002.0015-.0762.002-.0996v-3.0654c0-.2764.2236-.5.5-.5s.5.2236.5.5v3.0635c.001.0469-.0015.3467-.167.6484-.2217.4014-.6753.4453-.7642.4502l-7.9951.6904c-.0146.001-.0293.002-.0435.002Z"/><path class="cls-4" d="M211.665,85.0928h-8.5088c-.2764,0-.5-.2236-.5-.5s.2236-.5.5-.5h8.5088c.2764,0,.5.2236.5.5s-.2236.5-.5.5Z"/><path class="cls-4" d="M211.665,73.8174c-.2764,0-.5-.2236-.5-.5v-3.0635c-.0005-.0264-.0093-.1045-.0439-.168l-8.0171-1.4395c-.2715-.0508-.4507-.3115-.3999-.583.0518-.2705.3164-.4473.5835-.3994l8.0112,1.499c.0244-.001.4771.041.6982.4414.1665.3027.1689.6025.168.6602v3.0527c0,.2764-.2236.5-.5.5Z"/><path class="cls-4" d="M211.665,78.7295c-.2764,0-.5-.2236-.5-.5v-3.0635c-.0005-.0264-.0093-.1045-.0439-.168l-8.0054-1.2354c-.2725-.0439-.4575-.3008-.4136-.5732.0444-.2715.2954-.4619.5737-.4131l8.0112,1.2969c.0371,0,.4893.043.71.4424.1665.3037.1689.6035.168.6611v3.0527c0,.2764-.2236.5-.5.5Z"/><path class="cls-4" d="M211.665,83.6406c-.2764,0-.5-.2236-.5-.5v-3.0635c-.0005-.0264-.0093-.1045-.0439-.168l-7.9683-.625c-.2749-.0234-.479-.2656-.4551-.541.0234-.2754.2559-.4775.541-.4551l8.0112.6914c.0728.0039.5264.0479.7471.4482.1665.3027.1689.6025.168.6602v3.0527c0,.2764-.2236.5-.5.5Z"/><path class="cls-5" d="M249.0332,87.4726h-10.3643c-.5977,0-.7119-.2275-.7119-.5977v-17.6816c0-.3701.1143-.627.7119-.627h10.0225c.4844,0,.6836.2568.6836.627v2.6191c0,.3418,0,.5693-.626.5693h-6.207v3.3604h5.4951c.4834,0,.6543.1709.6543.541v2.6191c0,.3418,0,.626-.6543.626h-5.4951v4.1289h6.5771c.4834,0,.5977.2275.5977.5977v2.6201c0,.3418,0,.5977-.6836.5977Z"/><path class="cls-5" d="M258.7149,86.1914c-1.1387,1.082-2.5049,1.5088-3.5586,1.5088-3.3887,0-3.7871-2.1064-3.8154-4.498v-9.1689c0-.2559.0283-.626.7119-.626h2.9043c.626,0,.7402.2559.7402.626,0,2.5059-.0283,5.0117-.0283,7.5166,0,1.7939.4551,2.0791,1.1387,2.0791.541,0,1.2529-.2568,2.0498-.6836v-8.9404c0-.2842.0859-.5977.7686-.5977h2.8477c.626,0,.7119.2559.7119.626v12.8418c0,.3701-.0566.5977-.6836.5977h-2.9893c-.6553,0-.6553-.3418-.6553-.5977v-.6553c-.0566,0-.085-.0283-.1426-.0283Z"/><path class="cls-5" d="M274.4619,76.3964c.085.7119.0283.9971-.8262,1.1963-1.4521.3418-2.79.7402-3.8721,1.2529v8.0293c0,.2559-.0283.5977-.7119.5977h-2.9043c-.626,0-.7119-.2275-.7119-.5977v-12.8418c0-.3701.0859-.626.7119-.626h2.9043c.6836,0,.7119.3701.7119.626v1.082l.085.0576c1.082-1.2246,2.791-1.9365,3.7021-1.9365.3701,0,.5977.1426.6543.6836l.2568,2.4766Z"/><path class="cls-5" d="M281.0684,87.7002c-5.5527,0-5.9512-4.2988-5.9512-7.46,0-2.5049.5693-7.0889,5.9512-7.0889,5.3525,0,6.1504,3.8154,6.1504,7.0889,0,3.1611-.4561,7.46-6.1504,7.46ZM281.125,76.8808c-1.3096,0-1.623,1.2812-1.623,3.5303,0,2.4492.3135,3.5596,1.5664,3.5596,1.4238,0,1.7363-1.1963,1.7363-3.5596,0-2.335-.2559-3.5303-1.6797-3.5303Z"/><path class="cls-5" d="M301.9688,87.4726h-3.0752c-.6836,0-.7695-.2275-.7695-.5977v-7.2891h-4.1855v7.2891c0,.2559-.0283.5977-.7109.5977h-3.1328c-.5977,0-.7109-.2275-.7109-.5977v-17.6816c0-.3701.1133-.627.7109-.627h3.1328c.6826,0,.7109.3418.7109.627v6.5488h4.1855v-6.5488c0-.3701.0859-.627.7695-.627h3.0752c.7109,0,.7402.3418.7402.627v17.6816c0,.2559-.0293.5977-.7402.5977Z"/><path class="cls-5" d="M311.9063,80.5537h-1.9072v6.3213c0,.2559-.0293.5977-.7119.5977h-3.1328c-.626,0-.7402-.2275-.7402-.5977v-17.6816c0-.3701.1143-.627.7402-.627h4.6416c3.8154,0,7.1465,1.2246,7.1465,5.8945,0,2.6191-1.0537,6.0928-6.0361,6.0928ZM311.3369,72.3818h-1.3379v4.4707h1.3945c1.2529,0,1.9082-.7686,1.9082-2.2783,0-1.5088-.7402-2.1924-1.9648-2.1924Z"/><path class="cls-5" d="M326.7412,68.3388c1.6514,0,3.5312.2852,4.8125.9111.5693.2852.9111.627.8252,1.2529l-.3125,1.6514c-.1143.5693-.3701.6836-1.168.5693-1.3662-.1416-2.9609-.2559-3.7871-.2559-2.5049,0-3.0176,2.4482-3.0176,5.5518,0,3.5596.541,5.6377,3.0176,5.6377,1.1963,0,2.1924-.085,3.8438-.2559.8262-.0859,1.0254.0566,1.168.5693l.3418,1.5088c.1426.6553-.2275,1.0254-.7979,1.3096-1.2812.627-3.2168.9395-4.9258.9395-6.207,0-7.4883-4.8965-7.4883-9.6523,0-4.6406,1.2246-9.7373,7.4883-9.7373Z"/><path class="cls-4" d="M239.7246,100.791c-.5537,0-1.3486-.0996-1.873-.3545-.2129-.1143-.2275-.2275-.1846-.4121l.1416-.6523c.043-.1992.1143-.2129.3408-.1846.4971.0566.9795.1133,1.3623.1133.8652,0,1.1064-.4688,1.1064-1.2773v-6.499c0-.1846.0713-.2695.3125-.2695h1.0215c.2559,0,.3125.0996.3125.2695v6.7549c-.0137,1.5752-.7666,2.5117-2.54,2.5117Z"/><path class="cls-4" d="M246.3692,100.7763c-2.5693,0-2.7539-2.043-2.7539-3.7031,0-1.2354.2275-3.5059,2.7539-3.5059s2.8232,1.8594,2.8232,3.5059c0,1.6602-.1846,3.7031-2.8232,3.7031ZM246.3828,94.9296c-.9648,0-1.1777.7949-1.1777,2.2422,0,1.4902.2129,2.2422,1.1641,2.2422,1.0215,0,1.2344-.752,1.2344-2.2422,0-1.4756-.1992-2.2422-1.2207-2.2422Z"/><path class="cls-4" d="M251.1826,92.7021c-.7236,0-.8232-.4111-.8232-.8369,0-.4541.1699-.8096.8232-.8096.709,0,.8516.3271.8516.8096,0,.4395-.1279.8369-.8516.8369ZM251.6651,100.663h-.9365c-.2412,0-.3262-.085-.3262-.2695v-6.4141c0-.1846.085-.2695.3262-.2695h.9365c.2412,0,.2979.1133.2979.2695v6.4141c0,.1562-.0566.2695-.2979.2695Z"/><path class="cls-4" d="M254.8731,94.3056c.4824-.3691,1.249-.7236,1.9014-.7236,1.8027,0,1.9443,1.2627,1.9443,2.6963v4.1152c0,.1562-.0566.2695-.2979.2695h-.9932c-.2129,0-.2979-.085-.2979-.2695,0-.5957.0137-3.5195.0137-4.1016,0-1.0068-.2549-1.2627-.7949-1.2627-.4541,0-1.1064.2842-1.5459.5107v4.8535c0,.1562-.0576.2695-.2988.2695h-.9785c-.2275,0-.2842-.085-.2842-.2695v-6.4141c0-.1846.0566-.2695.2842-.2695h.9932c.2129,0,.2842.0986.2842.2695v.2979l.0703.0283Z"/><path class="cls-4" d="M263.7744,100.0527c.043.2412-.0713.3408-.1982.4121-.4688.2412-1.1787.3115-1.6035.3115-1.3203,0-1.6895-.667-1.6895-1.7451v-4.0586h-.5527c-.2275,0-.2842-.085-.2842-.2842v-.6953c0-.1982.0566-.2832.2842-.2832h.5674v-1.4766c0-.1836.1279-.2549.2979-.2979l.8936-.2695c.2129-.0566.3408.0146.3408.2412v1.8027h1.2627c.2559,0,.2705.0986.2705.2832v.6816c0,.1982-.0146.2979-.2705.2979h-1.2764v3.4629c0,.7373.127.9219.6807.9219.1562,0,.5674-.042.8232-.0713.2842-.0283.3408.0293.3691.2275l.085.5391Z"/><path class="cls-4" d="M272.5899,97.2431v-5.7051c0-.1982.0713-.2832.3271-.2832h.9648c.2695,0,.3262.0996.3262.2832v5.8047c0,2.0859-.9795,3.4336-3.1787,3.4336-2.3135,0-3.1504-1.4189-3.1504-3.4336v-5.8047c0-.1982.0713-.2832.3408-.2832h.9648c.2695,0,.3262.0996.3262.2832v5.7051c0,1.4619.4404,2.0723,1.5186,2.0723,1.0645,0,1.5605-.6387,1.5605-2.0723Z"/><path class="cls-4" d="M277.0645,94.3056c.4824-.3691,1.249-.7236,1.9014-.7236,1.8027,0,1.9443,1.2627,1.9443,2.6963v4.1152c0,.1562-.0566.2695-.2979.2695h-.9932c-.2129,0-.2979-.085-.2979-.2695,0-.5957.0137-3.5195.0137-4.1016,0-1.0068-.2549-1.2627-.7949-1.2627-.4541,0-1.1064.2842-1.5459.5107v4.8535c0,.1562-.0576.2695-.2988.2695h-.9785c-.2275,0-.2842-.085-.2842-.2695v-6.4141c0-.1846.0566-.2695.2842-.2695h.9932c.2129,0,.2842.0986.2842.2695v.2979l.0703.0283Z"/><path class="cls-4" d="M285.8379,93.7666v-2.8242c0-.1846.0713-.2842.3262-.2842h.9512c.2559,0,.2842.1143.2842.2842v9.4512c0,.1416-.0713.2695-.2842.2695h-.9932c-.2129,0-.2842-.085-.2842-.2695v-.2695s-.0283-.0146-.042-.0146c-.4541.3125-1.1924.6533-1.8311.6533-1.6885,0-2.1143-1.3203-2.1143-3.4629,0-2.3125.4678-3.7324,2.54-3.7324.3691,0,.9082.0713,1.4189.2412l.0283-.042ZM284.334,99.3154c.4395,0,1.1631-.2705,1.5039-.4834v-3.6895c-.5244-.1553-.9785-.1982-1.2773-.1982-.8086,0-1.1211.5537-1.1211,2.3125,0,1.7881.3408,2.0586.8945,2.0586Z"/><path class="cls-4" d="M288.4092,97.2148c0-1.377.2129-3.6475,2.7539-3.6475,2.3125,0,2.71,1.6465,2.7246,3.1787,0,.54-.1426.8662-.71.8662h-3.1504c.043,1.3906.4688,1.7881,1.3906,1.7881.4541,0,1.0645-.0566,1.5898-.1279.2129-.0283.3828-.043.4258.1982l.085.4971c.042.1982-.0146.3262-.2129.4258-.5107.2412-1.4336.3975-2.0859.3975-2.4414,0-2.8105-1.7031-2.8105-3.5762ZM290.0274,96.5332h2.2422c-.0283-.9219-.1982-1.6885-1.1211-1.6885-.7666,0-1.0781.5254-1.1211,1.6885Z"/><path class="cls-4" d="M298.7862,94.7744c.0283.2412-.0146.3545-.2842.4248-.7666.1846-1.5039.4258-1.9297.6387v4.5557c0,.1562-.0566.2695-.2979.2695h-.9941c-.2129,0-.2832-.085-.2832-.2695v-6.4141c0-.1846.0703-.2695.2832-.2695h.9795c.2559,0,.3125.1133.3125.2695v.5391l.0283.0283c.4395-.4395,1.249-.8369,1.8164-.9229.1846-.0137.2695.043.2832.2559l.0859.8945Z"/><path class="cls-4" d="M303.2578,100.0527c.043.2412-.0713.3408-.1982.4121-.4688.2412-1.1787.3115-1.6035.3115-1.3203,0-1.6895-.667-1.6895-1.7451v-4.0586h-.5527c-.2275,0-.2842-.085-.2842-.2842v-.6953c0-.1982.0566-.2832.2842-.2832h.5674v-1.4766c0-.1836.1279-.2549.2979-.2979l.8936-.2695c.2129-.0566.3408.0146.3408.2412v1.8027h1.2637c.2549,0,.2695.0986.2695.2832v.6816c0,.1982-.0146.2979-.2695.2979h-1.2773v3.4629c0,.7373.127.9219.6807.9219.1562,0,.5674-.042.8232-.0713.2842-.0283.3408.0293.3691.2275l.085.5391Z"/><path class="cls-4" d="M303.6006,98.7617c0-1.6748.8369-2.3701,2.4688-2.3701h1.4336v-.3125c0-.8086-.3262-1.1631-1.2207-1.1631-.4678,0-1.1914.0713-1.7881.1416-.1846.0283-.2549-.0283-.2832-.1982l-.1143-.5254c-.0283-.1562,0-.2842.1846-.3691.54-.2695,1.6318-.3975,2.2422-.3975,2.2139,0,2.54,1.0645,2.54,2.668v2.6543c0,.5527,0,.6094.3838.6387.2412.0283.2979.0703.2979.2119v.5537c0,.1426-.043.2695-.2412.3262-.1846.0713-.4258.0996-.71.0996-.6953,0-1.0352-.1982-1.1631-.7236-.0146,0-.0283-.0146-.043-.0146-.5957.4688-1.376.7949-2.1709.7949-1.3906,0-1.8164-.8232-1.8164-2.0146ZM307.4883,97.5273h-1.3193c-.5391,0-.9648.2549-.9648,1.1631,0,.5957.1699.7949.667.7949.4961,0,1.2061-.3545,1.6172-.6387v-1.3193Z"/><path class="cls-4" d="M312.0615,98.8183v1.5889c0,.1562-.0566.2559-.2979.2559h-.9795c-.2129,0-.2842-.0713-.2842-.2559v-9.4785c0-.1846.0713-.2705.2842-.2705h.9795c.2412,0,.2979.1143.2979.2705v5.6191c.0137,0,.0137.0137.0283.0137.7803-1.248,1.1348-1.7451,1.7314-2.6104.1133-.1562.1982-.2412.4961-.2412h1.0928c.1992,0,.2559.1699.1416.3262l-1.8164,2.4971,2.0723,3.8174c.0996.1426.0146.3125-.1846.3125h-1.0645c-.3828,0-.4541-.2412-.6104-.5254l-1.1914-2.2842c-.2412.3115-.4688.6387-.6953.9648Z"/><path class="cls-4" d="M317.4141,92.7021c-.7236,0-.8232-.4111-.8232-.8369,0-.4541.1699-.8096.8232-.8096.709,0,.8516.3271.8516.8096,0,.4395-.1279.8369-.8516.8369ZM317.8965,100.663h-.9365c-.2412,0-.3262-.085-.3262-.2695v-6.4141c0-.1846.085-.2695.3262-.2695h.9365c.2412,0,.2979.1133.2979.2695v6.4141c0,.1562-.0566.2695-.2979.2695Z"/><path class="cls-4" d="M321.1045,94.3056c.4824-.3691,1.249-.7236,1.9014-.7236,1.8027,0,1.9443,1.2627,1.9443,2.6963v4.1152c0,.1562-.0566.2695-.2979.2695h-.9932c-.2129,0-.2979-.085-.2979-.2695,0-.5957.0137-3.5195.0137-4.1016,0-1.0068-.2549-1.2627-.7949-1.2627-.4541,0-1.1064.2842-1.5459.5107v4.8535c0,.1562-.0576.2695-.2988.2695h-.9785c-.2275,0-.2842-.085-.2842-.2695v-6.4141c0-.1846.0566-.2695.2842-.2695h.9932c.2129,0,.2842.0986.2842.2695v.2979l.0703.0283Z"/><path class="cls-4" d="M331.0987,93.9511c.3545.1279.3975.3828.3975.6387v5.96c0,1.6602-.2559,2.8809-2.7109,2.8809-.624,0-1.4756-.0996-2.043-.3271-.2842-.127-.3125-.2549-.2842-.4258l.0996-.5391c.043-.2412.1279-.2549.4258-.1982.6104.0996,1.3193.1416,1.7168.1416.9648,0,1.2344-.3691,1.2344-1.2344v-.4111c-.5811.2266-1.0498.2979-1.4189.2979-2.1426,0-2.582-1.4189-2.582-3.5195,0-2.2275.624-3.6475,2.8379-3.6475.7803,0,1.7314.1279,2.3271.3838ZM328.6436,99.3437c.3262,0,.7949-.0859,1.2773-.2412v-3.9883c-.3408-.0703-.7236-.1133-1.0791-.1133-.709,0-1.291.2559-1.291,2.0859,0,1.7451.3125,2.2568,1.0928,2.2568Z"/></g><g id="Layer_2"><polygon class="cls-2" points="134.3429 46.1554 133.0851 49.8286 129.4148 49.8286 132.2537 52.2515 131.5039 55.5136 134.3429 53.5048 137.1803 55.5136 136.4297 52.2515 139.2671 49.8286 135.5912 49.8286 134.3429 46.1554"/><polygon class="cls-2" points="134.3429 111.4892 133.0851 115.1614 129.4148 115.1614 132.2537 117.5869 131.5039 120.8446 134.3429 118.8384 137.1803 120.8446 136.4297 117.5869 139.2671 115.1614 135.5912 115.1614 134.3429 111.4892"/><polygon class="cls-2" points="101.4228 78.8189 100.1704 82.4945 96.4926 82.4945 99.3348 85.0027 98.5799 88.2604 101.4228 86.1736 104.344 88.2604 103.5107 85.0027 106.3529 82.4945 102.6741 82.4945 101.4228 78.8189"/><polygon class="cls-2" points="167.2569 78.8189 166.0012 82.4945 162.3248 82.4945 165.17 85.0027 164.3336 88.2604 167.2569 86.1736 170.1037 88.2604 169.3458 85.0027 172.1847 82.4945 168.5136 82.4945 167.2569 78.8189"/><polygon class="cls-2" points="117.8788 51.0798 116.631 54.7589 112.953 54.7589 115.792 57.1809 115.0398 60.4381 117.8788 58.435 120.8047 60.4381 119.9667 57.1809 122.8145 54.7589 119.1355 54.7589 117.8788 51.0798"/><polygon class="cls-2" points="150.8057 51.0798 149.5463 54.7589 145.8699 54.7589 148.7083 57.1809 147.8787 60.4381 150.8057 58.435 153.6341 60.4381 152.8925 57.1809 155.7299 54.7589 152.0545 54.7589 150.8057 51.0798"/><polygon class="cls-2" points="117.8788 106.5556 116.631 110.2325 112.953 110.2325 115.792 112.658 115.0398 115.9157 117.8788 113.909 120.8047 115.9157 119.9667 112.658 122.8145 110.2325 119.1355 110.2325 117.8788 106.5556"/><polygon class="cls-2" points="150.8057 106.5556 149.5463 110.2325 145.8699 110.2325 148.7083 112.658 147.8787 115.9157 150.8057 113.909 153.6341 115.9157 152.8925 112.658 155.7299 110.2325 152.0545 110.2325 150.8057 106.5556"/><polygon class="cls-2" points="106.3529 62.5307 105.1001 66.2061 101.4228 66.2061 104.344 68.625 103.5107 71.8856 106.3529 69.8791 109.2743 71.8856 108.4407 68.625 111.2841 66.2061 107.603 66.2061 106.3529 62.5307"/><polygon class="cls-2" points="162.3248 62.5307 161.0754 66.2061 157.399 66.2061 160.2353 68.625 159.4068 71.8856 162.3248 69.8791 165.17 71.8856 164.3336 68.625 167.2569 66.2061 163.5826 66.2061 162.3248 62.5307"/><polygon class="cls-2" points="106.3529 95.1924 105.1001 98.7893 101.4228 98.7893 104.344 101.21 103.5107 104.4666 106.3529 102.4646 109.2743 104.4666 108.4407 101.21 111.2841 98.7893 107.603 98.7893 106.3529 95.1924"/><polygon class="cls-2" points="162.3248 95.1924 161.0754 98.7893 157.399 98.7893 160.2353 101.21 159.4068 104.4666 162.3248 102.4646 165.17 104.4666 164.3336 101.21 167.2569 98.7893 163.5826 98.7893 162.3248 95.1924"/></g></svg>